<svg width="210" height="210" viewBox="0 0 210 210" fill="none" xmlns="http://www.w3.org/2000/svg">
<path d="M131.25 40.0925V105C131.247 110.572 129.471 115.998 126.18 120.493C122.889 124.989 118.252 128.321 112.941 130.006C107.631 131.692 101.922 131.644 96.6401 129.869C91.3586 128.095 86.7786 124.686 83.563 120.136C80.3474 115.586 78.663 110.131 78.7535 104.56C78.844 98.9889 80.7047 93.5913 84.0664 89.148C87.4282 84.7048 92.1165 81.4465 97.4529 79.8446C102.789 78.2427 108.497 78.3803 113.75 80.2375V17.9375C157.964 22.3212 192.5 59.6312 192.5 105C192.5 153.326 153.326 192.5 105 192.5C56.6738 192.5 17.5 153.326 17.5 105C17.5 59.6312 52.0363 22.3212 96.25 17.9375V35.5425C78.5987 37.7885 62.465 46.6713 51.1279 60.3857C39.7908 74.1 34.1012 91.6166 35.2154 109.375C36.3297 127.134 44.1641 143.802 57.1265 155.992C70.0889 168.181 87.2064 174.978 105 175C121.252 175.009 137 169.363 149.544 159.03C162.088 148.698 170.646 134.322 173.75 118.37C176.854 102.417 174.311 85.8816 166.556 71.5993C158.802 57.317 146.319 46.1778 131.25 40.0925V40.0925Z" fill="#CACACA" fill-opacity="0.4"/>
<rect width="210" height="210" fill="#858585" fill-opacity="0.48"/>
</svg>
